<?xml version="1.0" encoding="utf-8"?>
<!-- Generator: Adobe Illustrator 24.1.1, SVG Export Plug-In . SVG Version: 6.00 Build 0)  -->
<svg version="1.1" xmlns="http://www.w3.org/2000/svg" xmlns:xlink="http://www.w3.org/1999/xlink" x="0px" y="0px"
	 viewBox="0 0 382 400" style="enable-background:new 0 0 382 400;" xml:space="preserve">
<style type="text/css">
	.st0{display:none;}
	.st1{display:inline;fill:#FFFFFF;stroke:#000000;stroke-miterlimit:10;}
	.st2{display:inline;fill:#1A1A1A;stroke:#000000;stroke-miterlimit:10;}
	.st3{display:inline;fill:none;stroke:#4D4D4D;stroke-width:5;stroke-miterlimit:10;}
	.st4{display:inline;fill:none;stroke:#000000;stroke-miterlimit:10;}
	.st5{display:inline;fill:#1A1A1A;stroke:#1A1A1A;stroke-width:3;stroke-miterlimit:10;}
	.st6{display:inline;fill:#1A1A1A;stroke:#1A1A1A;stroke-width:2;stroke-miterlimit:10;}
	.st7{display:inline;fill:none;stroke:#1A1A1A;stroke-width:2;stroke-miterlimit:10;}
	.st8{display:inline;fill:none;stroke:#4D4D4D;stroke-width:9;stroke-miterlimit:10;}
	.st9{display:inline;stroke:#4D4D4D;stroke-miterlimit:10;}
	.st10{display:inline;fill:none;stroke:#4D4D4D;stroke-width:7;stroke-miterlimit:10;}
	.st11{display:inline;}
	.st12{fill:none;stroke:#000000;stroke-miterlimit:10;}
	.st13{display:inline;fill:#F2F2F2;}
	.st14{fill:#FFFFFF;stroke:#000000;stroke-miterlimit:10;}
	.st15{fill:#A67C52;}
	.st16{fill:#FFFFFF;}
	.st17{fill:none;stroke:#F44336;stroke-width:5;stroke-miterlimit:10;}
	.st18{fill:#222222;}
	.st19{fill:none;stroke:#1A1A1A;stroke-width:2;stroke-miterlimit:10;}
	.st20{fill:none;stroke:#F44336;stroke-width:9;stroke-miterlimit:10;}
	.st21{fill:#222222;stroke:#4D4D4D;stroke-miterlimit:10;}
	.st22{fill:#E6E6E6;}
	.st23{fill:#FFFFFF;stroke:#000000;stroke-width:2;stroke-miterlimit:10;}
	.st24{fill:none;stroke:#F44336;stroke-width:7;stroke-miterlimit:10;}
	.st25{fill:none;stroke:#4D4D4D;stroke-width:5;stroke-miterlimit:10;}
	.st26{fill:none;stroke:#4D4D4D;stroke-width:7;stroke-miterlimit:10;}
	.st27{fill:none;stroke:#4D4D4D;stroke-width:9;stroke-miterlimit:10;}
</style>
<g id="Layer_1" class="st0">
	<path class="st1" d="M67.75,219.18v-81.15c0-67.6,57.67-122.39,128.81-122.39h0c71.14,0,128.81,54.8,128.81,122.39v81.15
		c7.78,79.17-48.21,133.75-132.67,120.65"/>
	<ellipse class="st2" cx="179.69" cy="192.49" rx="13.14" ry="23.71"/>
	<ellipse class="st2" cx="272.09" cy="192.49" rx="13.14" ry="23.71"/>
	<path class="st3" d="M321.49,226.56H257.7c-6.44,0-11.66-5.22-11.66-11.66v-42.11c0-6.44,5.22-11.66,11.66-11.66h63.79
		c6.44,0,11.66,5.22,11.66,11.66v42.11C333.15,221.34,327.93,226.56,321.49,226.56z"/>
	<path class="st4" d="M234.43,169.61"/>
	<polygon class="st5" points="158.81,154.78 212.38,154.05 212.38,135.69 158.81,136.41 	"/>
	<polygon class="st6" points="129.08,160.98 157.77,136.62 157.77,154.99 	"/>
	<polygon class="st5" points="306.76,153.68 253.18,153.6 252.96,135.24 306.54,135.31 	"/>
	<polygon class="st6" points="336.57,159.51 307.59,135.5 307.81,153.87 	"/>
	<path class="st7" d="M234.38,255.84h16.38h2.2c7.21-4.8,6.73-12.66,6.73-12.66c0-9.61-6.73-10.48-6.73-10.48h-18.53v-73.63
		l8.04-15.75"/>
	<path class="st3" d="M211.4,226.56h-63.79c-6.44,0-11.66-5.22-11.66-11.66v-42.11c0-6.44,5.22-11.66,11.66-11.66h63.79
		c6.44,0,11.66,5.22,11.66,11.66v42.11C223.06,221.34,217.84,226.56,211.4,226.56z"/>
	<path class="st4" d="M72.3,200.81"/>
	<line class="st8" x1="246.59" y1="168.79" x2="223.06" y2="168.79"/>
	<path class="st9" d="M108.62,173.75l0.13,2.34l1.62,29.26H84.39l-32.12-15.8l11.27-95.72c0.32-2.68,1.32-5.23,2.93-7.39
		l47.17-63.83c3.17-4.29,8.18-6.85,13.52-6.9l206,0.08l-15.3,85.26l-8.74-11.99c0,0-40.68-13.72-53.78-14.59
		c-13.1-0.87-68.55-0.44-79.46,2.18c-10.92,2.62-37.24,6.54-46.78,10.47c-9.54,3.93-26.13,21.81-26.13,32.28
		S108.62,173.75,108.62,173.75z"/>
	<line class="st10" x1="139.05" y1="164.55" x2="45.43" y2="182.9"/>
	<path class="st1" d="M84.17,244.21c2.18,19.77-13.02,24.89-24.89,13.54c-9.22-8.82-1.04-25.84-6.23-46.65
		c-10.36-41.48,24.13-31.94,28.06-17.25"/>
	<line class="st4" x1="75.44" y1="263.69" x2="59.1" y2="336.56"/>
	<line class="st4" x1="202.94" y1="341.09" x2="199" y2="384.37"/>
	<line class="st4" x1="59.1" y1="336.56" x2="199" y2="384.37"/>
	<g class="st11">
		<path class="st12" d="M75.25,198.76c-3.55-3.23-9.14-5.55-15.86-4.67"/>
	</g>
	<path class="st13" d="M324.19,250.77c0,0-9.09,29.74-10.62,32.84s-18.05,30.33-33.1,38.7c-15.05,8.37-29.8,15.03-41.99,16.55
		s-28.07,2.87-43.46,0.63s-49-16.82-63.85-26.18s-21.39-24.92-26.2-39.19c-4.8-14.27-9.17-19.46-12.23-28.97
		c-3.06-9.51,1.75-13.17,3.93-15.02c2.18-1.85,15.28-1.79,26.63,4.02s25.81,10.13,32.55,11.43c6.74,1.3,9.15,3.89,21.92,6.92
		c12.77,3.03,23.68,6.92,40.71,6.92s14.04,0.43,32.56,0.43s30.31-0.17,42.1-2.25C304.95,255.52,324.19,250.77,324.19,250.77z"/>
	<path class="st2" d="M268.82,285.55c-1.5,10.72-24.58,26.37-49.85,22.83s-43.16-24.93-41.66-35.65c1.5-10.72,20.49,2.87,45.76,6.41
		S270.33,274.83,268.82,285.55z"/>
</g>
<g id="Layer_2">
	<path class="st14" d="M66.92,212.86v-82.77c0-68.95,58.82-124.84,131.38-124.84h0c72.56,0,131.38,55.89,131.38,124.84v82.77
		c7.93,80.75-49.18,136.42-135.32,123.06"/>
	<ellipse class="st12" cx="183.64" cy="187.67" rx="15.03" ry="22.15"/>
	<ellipse class="st15" cx="189.4" cy="188.72" rx="7.7" ry="11.34"/>
	<ellipse cx="190.19" cy="188.07" rx="6.23" ry="9.18"/>
	<ellipse class="st16" cx="193.83" cy="184.96" rx="2.93" ry="4.32"/>
	<ellipse class="st15" cx="283.49" cy="188.99" rx="7.7" ry="11.34"/>
	<ellipse cx="284.28" cy="188.34" rx="6.23" ry="9.18"/>
	<ellipse class="st16" cx="287.92" cy="185.22" rx="2.93" ry="4.32"/>
	<path class="st17" d="M323.45,222.09h-65.53c-6.44,0-11.66-5.22-11.66-11.66v-43.41c0-6.44,5.22-11.66,11.66-11.66h65.53
		c6.44,0,11.66,5.22,11.66,11.66v43.41C335.11,216.87,329.89,222.09,323.45,222.09z"/>
	<path class="st17" d="M211.72,222.35h-65.53c-6.44,0-11.66-5.22-11.66-11.66v-43.41c0-6.44,5.22-11.66,11.66-11.66h65.53
		c6.44,0,11.66,5.22,11.66,11.66v43.41C223.37,217.13,218.15,222.35,211.72,222.35z"/>
	<path class="st12" d="M236.93,162.3"/>
	<polygon class="st18" points="157.83,147.17 212.47,146.43 212.47,127.7 157.83,128.44 	"/>
	<polygon class="st18" points="129.48,153.5 158.73,128.65 158.74,147.38 	"/>
	<polygon class="st18" points="330.42,149.91 330.42,141.07 311.55,127.51 311.77,146.25 	"/>
	<polygon class="st18" points="312.68,146.05 258.03,145.97 257.8,127.24 312.45,127.31 	"/>
	<path class="st19" d="M236.88,250.25h16.71h2.24c7.35-4.9,6.87-12.91,6.87-12.91c0-9.8-6.87-10.69-6.87-10.69h-18.9v-75.1
		l8.2-16.06"/>
	<path class="st12" d="M71.56,194.12"/>
	<line class="st20" x1="249.33" y1="163.29" x2="225.33" y2="163.29"/>
	<path class="st21" d="M108.61,166.53l0.13,2.39l1.65,29.84h-26.5l-32.76-16.11l11.5-97.63c0.32-2.73,1.35-5.33,2.98-7.54
		l48.11-65.1c3.23-4.38,8.34-6.98,13.79-7.03h224.33l-28.45,88.94L313.1,80.15c0,0-41.49-13.99-54.85-14.88
		c-13.36-0.89-69.92-0.44-81.05,2.22c-11.13,2.67-37.99,6.67-47.72,10.68c-9.73,4-26.65,22.25-26.65,32.93
		S108.61,166.53,108.61,166.53z"/>
	<line class="st12" x1="74.77" y1="258.26" x2="58.1" y2="332.59"/>
	<line class="st12" x1="204.81" y1="337.21" x2="200.8" y2="381.34"/>
	<path class="st12" d="M58.1,332.59c0,0,101.35,68.37,133.69,63.36c9.57-1.48,9-14.6,9-14.6"/>
	<path class="st22" d="M328.48,245.08c0,0-9.27,30.33-10.84,33.5c-1.56,3.16-18.42,30.94-33.76,39.47
		c-15.35,8.54-30.4,15.33-42.82,16.88c-12.43,1.55-28.64,2.93-44.32,0.65c-15.69-2.28-49.98-17.16-65.12-26.7
		s-21.82-25.42-26.72-39.98c-4.9-14.55-9.35-19.85-12.47-29.55s1.78-13.43,4.01-15.32c2.23-1.88,15.59-1.82,27.17,4.1
		s26.32,10.33,33.2,11.66s9.33,3.97,22.36,7.06s24.16,7.06,41.52,7.06s14.32,0.44,33.21,0.44s30.92-0.17,42.94-2.29
		C308.85,249.93,328.48,245.08,328.48,245.08z"/>
	<path class="st23" d="M272.01,281.22c-1.53,10.94-25.07,26.9-50.85,23.29s-44.03-25.42-42.49-36.36s20.9,2.93,46.67,6.53
		S273.54,270.29,272.01,281.22z"/>
	<path class="st24" d="M138.25,161.92l-39.04,7.56L48.18,181.5c0,0-5.48,0.91-5.48,27.18"/>
	<path class="st25" d="M325.96,220.38h-65.53c-6.44,0-11.66-5.22-11.66-11.66v-43.41c0-6.44,5.22-11.66,11.66-11.66h65.53
		c6.44,0,11.66,5.22,11.66,11.66v43.41C337.62,215.16,332.4,220.38,325.96,220.38z"/>
	<path class="st26" d="M137.81,159.66l-39.04,7.56l-51.03,12.01c0,0-5.48,0.91-5.48,27.18"/>
	<path class="st25" d="M213.67,220.38h-65.53c-6.44,0-11.66-5.22-11.66-11.66v-43.41c0-6.44,5.22-11.66,11.66-11.66h65.53
		c6.44,0,11.66,5.22,11.66,11.66v43.41C225.33,215.16,220.11,220.38,213.67,220.38z"/>
	<line class="st27" x1="249.33" y1="161.46" x2="225.33" y2="161.46"/>
	<path class="st14" d="M83.67,238.39c2.23,20.16-13.28,25.39-25.38,13.81c-9.4-9-1.06-26.35-6.36-47.59
		c-10.56-42.31,24.62-32.57,28.62-17.59"/>
	<g>
		<path class="st12" d="M73.6,192.03c-3.62-3.29-9.32-5.66-16.17-4.76"/>
	</g>
	<path class="st12" d="M72.42,198.57c0,0,2.26,6.89,0.66,9.52c-1.34,2.21-6.12,6.89-6.1,9.48c0.02,2.55,4.81,7.7,6.16,9.86
		c1.66,2.67-0.71,9.14-0.71,9.14"/>
	<ellipse class="st12" cx="277.73" cy="187.67" rx="15.03" ry="22.15"/>
	<path class="st23" d="M226.31,274.02c-25.78-3.61-45.14-17.47-46.67-6.53c-0.4,2.88,0.58,6.52,2.69,10.37
		c7.77,0.39,22.8,8.08,41.05,10.63c19.61,2.75,37.27-1.23,43.93,1.53c3.23-3.2,5.26-6.52,5.67-9.47
		C274.51,269.62,252.09,277.63,226.31,274.02z"/>
</g>
</svg>
